<?xml version="1.0" encoding="utf-8"?>
<!-- Generator: Adobe Illustrator 17.1.0, SVG Export Plug-In . SVG Version: 6.00 Build 0)  -->
<!DOCTYPE svg PUBLIC "-//W3C//DTD SVG 1.1//EN" "http://www.w3.org/Graphics/SVG/1.1/DTD/svg11.dtd">
<svg version="1.1" xmlns="http://www.w3.org/2000/svg" xmlns:xlink="http://www.w3.org/1999/xlink" x="0px" y="0px"
	 viewBox="0 0 284 65" enable-background="new 0 0 284 65" xml:space="preserve">
<g id="Boundingbox">
	<rect fill="none" width="284" height="65"/>
</g>
<g id="Voith_x2B_Claim">
	<g>
		<polygon fill="#003D7B" points="40.7,63.6 26.4,63.6 0,2.2 21,2.2 33.6,36.6 46.3,2.2 67.2,2.2 		"/>
		<path fill="#003D7B" d="M131.7,32.4c0-17.7-14.3-32-32-32c-17.7,0-32.1,14.3-32.1,32c0,17.7,14.4,32.1,32.1,32.1
			C117.4,64.5,131.7,50.1,131.7,32.4 M114.2,32.4c0,8.1-6.4,14.7-14.5,14.7c-8.1,0-14.7-6.6-14.7-14.7s6.6-14.5,14.7-14.5
			C107.8,17.9,114.2,24.3,114.2,32.4"/>
		<polygon fill="#003D7B" points="143.1,2.2 152.5,2.2 162,2.2 162,63.6 143.1,63.6 		"/>
		<polygon fill="#003D7B" points="205.4,20.4 205.4,63.6 186.4,63.6 186.4,20.4 173.5,20.4 173.5,2.2 218.3,2.2 218.3,20.4 		"/>
		<polygon fill="#003D7B" points="264.5,63.6 264.5,41.4 248.7,41.4 248.7,63.6 229.8,63.6 229.8,2.2 248.7,2.2 248.7,23.2 
			264.5,23.2 264.5,2.2 283.5,2.2 283.5,63.6 		"/>
	</g>
</g>
</svg>
